  <svg
    t="1742974594317"
    class="icon"
    viewBox="0 0 1024 1024"
    version="1.1"
    xmlns="http://www.w3.org/2000/svg"
    p-id="26958"
    width="200"
    height="200">
    <path
      d="M830.819922 1023.998701H187.599183a65.20304 65.20304 0 0 1-60.376125-89.604576 116.668492 116.668492 0 0 1 42.251743-54.791622c-28.672887-25.25292-89.655082-95.448823-43.081482-206.020538a282.544102 282.544102 0 0 1-57.028309-44.012233C26.752511 586.632553 7.675733 536.263799 14.190987 483.882028l0.072151-0.447338c0.404047-2.445926 43.29072-242.925878 284.506615-252.038574a731.346216 731.346216 0 0 1 89.380907-127.159276C463.779549 19.322092 540.873107-14.718845 611.133946 5.822602a10.80825 10.80825 0 0 1 6.753352 5.772096c0.728727 1.551251 71.090578 156.798989-106.899219 298.186482a90.239507 90.239507 0 0 0-33.586384 63.218882 85.008545 85.008545 0 0 0 21.695867 64.791779 75.167121 75.167121 0 0 0 54.813267 24.834443c3.29731 0.216454 292.118566 23.968629 336.592566 304.03073 23.817111 2.236687 88.262564 11.544192 118.06101 47.966118a10.829895 10.829895 0 0 1 2.431495 6.269939c0.093797 1.80378 7.698533 181.647863-178.942192 203.033479a10.288761 10.288761 0 0 1-1.233786 0.072151zM35.641539 486.818582c-5.627794 45.902594 10.736099 88.65218 48.651554 127.058264a255.68221 255.68221 0 0 0 60.801817 45.274879 10.829895 10.829895 0 0 1 5.036154 14.285937c-60.433846 129.511405 40.108852 195.724562 44.416279 198.480738a10.82268 10.82268 0 0 1-1.19771 18.903615 92.122653 92.122653 0 0 0-46.032466 51.602539 43.27629 43.27629 0 0 0 4.379578 40.909731 42.742371 42.742371 0 0 0 35.902438 19.019056h642.593024c153.653197-17.965649 159.504659-152.253464 159.28099-176.705506-31.696022-34.279035-108.082499-37.994822-108.876162-38.023682a10.829895 10.829895 0 0 1-10.24547-9.329151c-37.446473-271.072061-314.810119-293.864625-317.609586-294.059433a95.816795 95.816795 0 0 1-69.654769-31.890831 106.423021 106.423021 0 0 1-27.258724-81.09795 111.978664 111.978664 0 0 1 41.696179-78.42114C647.14461 173.985405 609.921806 50.49141 600.166964 25.26735c-149.093241-37.085717-283.850039 219.123197-285.213697 221.749501a10.83711 10.83711 0 0 1-9.379656 5.844247C79.307445 257.507635 37.012412 479.141694 35.634324 486.811366z"
      fill="#344154"
      p-id="26959"></path>
    <path
      d="M512.012626 361.528022a10.82268 10.82268 0 0 1-3.304525-21.133087c1.77492-0.569994 175.731465-58.456903 224.000618-244.693582-14.13442-4.870206-44.979059-12.164692-74.2508 3.059211a10.82268 10.82268 0 1 1-9.985727-19.20665c49.423573-25.685827 99.712959-1.132774 101.82699-0.079366a10.82268 10.82268 0 0 1 5.699945 12.121401c-47.735234 205.645352-238.777184 268.806513-240.696406 269.412584a10.714453 10.714453 0 0 1-3.29731 0.519489zM240.132472 709.000989a197.593278 197.593278 0 0 1-106.04062-31.291976 10.82268 10.82268 0 0 1 12.446082-17.713119 172.297067 172.297067 0 0 0 161.63312 12.698611 10.82268 10.82268 0 0 1 8.759156 19.805505 188.430076 188.430076 0 0 1-76.797738 16.500979z"
      fill="#344154"
      p-id="26960"></path>
    <path
      d="M477.329544 267.40678C586.891143 180.378002 583.334088 92.295816 574.914043 54.156691q-2.40985-0.129872-4.84856-0.129872c-69.510467 0-140.28358 77.295581-185.832633 142.318244a663.502442 663.502442 0 0 1 45.419181 140.983446 144.150884 144.150884 0 0 1 47.677513-69.914514zM879.190087 820.056117l-36.06117-1.572896c-149.742602 86.437138-446.731374 75.931924-565.650984 67.90871l0.440123 0.288605-70.664886 33.470942a60.000939 60.000939 0 0 0-29.776801 34.307896 11.154576 11.154576 0 0 0 1.103914 10.663947 10.461924 10.461924 0 0 0 9.0189 4.76198h640.644941c106.242643-13.297466 125.160688-93.305933 128.234329-129.496975-19.769429-12.229629-55.210099-19.264371-77.288366-20.332209z"
      fill="#FF6D3B"
      p-id="26961"></path>
    <path
      d="M168.48633 435.432496a18.93969 18.93969 0 1 1 18.93969-18.932475 18.961336 18.961336 0 0 1-18.93969 18.939691z m0-21.64536a2.70567 2.70567 0 1 0 2.70567 2.712885 2.70567 2.70567 0 0 0-2.70567-2.70567z"
      fill="#344154"
      p-id="26962"></path>
  </svg>

